<?xml version="1.0" encoding="UTF-8"?>
<!DOCTYPE svg  PUBLIC '-//W3C//DTD SVG 20010904//EN'  'http://www.w3.org/TR/2001/REC-SVG-20010904/DTD/svg10.dtd'>
<svg width="1280pt" height="1280pt" version="1.0" viewBox="0 0 1280 1280" xmlns="http://www.w3.org/2000/svg">
<metadata>Created by potrace 1.15, written by Peter Selinger 2001-2017</metadata>
<g transform="translate(0 1280) scale(.1 -.1)">
<path d="m550 12465c-105-35-200-141-222-248-43-206 163-412 369-369 155 32 275 190 260 339-11 105-90 213-190 262-61 29-155 36-217 16z"/>
<path d="m1830 12465c-151-50-253-216-222-362 25-119 136-230 254-255 194-41 395 142 375 339-11 105-90 213-190 262-61 29-155 36-217 16z"/>
<path d="m3110 12465c-105-35-200-141-222-248-43-206 163-412 369-369 155 32 275 190 260 339-11 105-90 213-190 262-61 29-155 36-217 16z"/>
<path d="m4390 12465c-105-35-200-141-222-248-43-206 163-412 369-369 155 32 275 190 260 339-11 105-90 213-190 262-61 29-155 36-217 16z"/>
<path d="m5670 12465c-105-35-200-141-222-248-43-206 163-412 369-369 155 32 275 190 260 339-11 105-90 213-190 262-61 29-155 36-217 16z"/>
<path d="m6950 12465c-105-35-200-141-222-248-43-206 163-412 369-369 155 32 275 190 260 339-11 105-90 213-190 262-61 29-155 36-217 16z"/>
<path d="m8230 12465c-105-35-200-141-222-248-43-206 163-412 369-369 155 32 275 190 260 339-11 105-90 213-190 262-61 29-155 36-217 16z"/>
<path d="m9510 12465c-105-35-200-141-222-248-43-206 163-412 369-369 155 32 275 190 260 339-11 105-90 213-190 262-61 29-155 36-217 16z"/>
<path d="m10790 12465c-105-35-200-141-222-248-25-117 32-244 142-319 107-74 229-75 337-3 177 118 201 338 53 485-85 86-207 119-310 85z"/>
<path d="m12070 12465c-105-35-200-141-222-248-25-117 32-244 142-319 107-74 229-75 337-3 177 118 201 338 53 485-85 86-207 119-310 85z"/>
<path d="m550 11185c-105-35-200-141-222-248-43-206 163-412 369-369 155 32 275 190 260 339-11 105-90 213-190 262-61 29-155 36-217 16z"/>
<path d="m1830 11185c-151-50-253-216-222-362 25-119 136-230 254-255 194-41 395 142 375 339-11 105-90 213-190 262-61 29-155 36-217 16z"/>
<path d="m3110 11185c-105-35-200-141-222-248-43-206 163-412 369-369 155 32 275 190 260 339-11 105-90 213-190 262-61 29-155 36-217 16z"/>
<path d="m4390 11185c-105-35-200-141-222-248-43-206 163-412 369-369 155 32 275 190 260 339-11 105-90 213-190 262-61 29-155 36-217 16z"/>
<path d="m5670 11185c-105-35-200-141-222-248-43-206 163-412 369-369 155 32 275 190 260 339-11 105-90 213-190 262-61 29-155 36-217 16z"/>
<path d="m6950 11185c-105-35-200-141-222-248-43-206 163-412 369-369 155 32 275 190 260 339-11 105-90 213-190 262-61 29-155 36-217 16z"/>
<path d="m8230 11185c-105-35-200-141-222-248-43-206 163-412 369-369 155 32 275 190 260 339-11 105-90 213-190 262-61 29-155 36-217 16z"/>
<path d="m9510 11185c-105-35-200-141-222-248-43-206 163-412 369-369 155 32 275 190 260 339-11 105-90 213-190 262-61 29-155 36-217 16z"/>
<path d="m10790 11185c-105-35-200-141-222-248-25-117 32-244 142-319 107-74 229-75 337-3 177 118 201 338 53 485-85 86-207 119-310 85z"/>
<path d="m12070 11185c-105-35-200-141-222-248-25-117 32-244 142-319 107-74 229-75 337-3 177 118 201 338 53 485-85 86-207 119-310 85z"/>
<path d="m550 9905c-105-35-200-141-222-248-43-206 163-412 369-369 155 32 275 190 260 339-11 105-90 213-190 262-61 29-155 36-217 16z"/>
<path d="m1830 9905c-105-35-200-141-222-248-43-206 163-412 369-369 155 32 275 190 260 339-11 105-90 213-190 262-61 29-155 36-217 16z"/>
<path d="m3110 9905c-105-35-200-141-222-248-43-206 163-412 369-369 155 32 275 190 260 339-11 105-90 213-190 262-61 29-155 36-217 16z"/>
<path d="m4390 9905c-105-35-200-141-222-248-43-206 163-412 369-369 155 32 275 190 260 339-11 105-90 213-190 262-61 29-155 36-217 16z"/>
<path d="m5670 9905c-105-35-200-141-222-248-43-206 163-412 369-369 155 32 275 190 260 339-11 105-90 213-190 262-61 29-155 36-217 16z"/>
<path d="m6950 9905c-105-35-200-141-222-248-43-206 163-412 369-369 155 32 275 190 260 339-11 105-90 213-190 262-61 29-155 36-217 16z"/>
<path d="m8230 9905c-105-35-200-141-222-248-43-206 163-412 369-369 155 32 275 190 260 339-11 105-90 213-190 262-61 29-155 36-217 16z"/>
<path d="m9510 9905c-105-35-200-141-222-248-43-206 163-412 369-369 155 32 275 190 260 339-11 105-90 213-190 262-61 29-155 36-217 16z"/>
<path d="m10790 9905c-105-35-200-141-222-248-43-206 163-412 369-369 155 32 275 190 260 339-11 105-90 213-190 262-61 29-155 36-217 16z"/>
<path d="m12070 9905c-105-35-200-141-222-248-43-206 163-412 369-369 155 32 275 190 260 339-11 105-90 213-190 262-61 29-155 36-217 16z"/>
<path d="m550 8625c-105-35-200-141-222-248-43-206 163-412 369-369 155 32 275 190 260 339-11 105-90 213-190 262-61 29-155 36-217 16z"/>
<path d="m1830 8625c-105-35-200-141-222-248-43-206 163-412 369-369 155 32 275 190 260 339-11 105-90 213-190 262-61 29-155 36-217 16z"/>
<path d="m3110 8625c-105-35-200-141-222-248-43-206 163-412 369-369 155 32 275 190 260 339-11 105-90 213-190 262-61 29-155 36-217 16z"/>
<path d="m4390 8625c-105-35-200-141-222-248-43-206 163-412 369-369 155 32 275 190 260 339-11 105-90 213-190 262-61 29-155 36-217 16z"/>
<path d="m5670 8625c-105-35-200-141-222-248-43-206 163-412 369-369 155 32 275 190 260 339-11 105-90 213-190 262-61 29-155 36-217 16z"/>
<path d="m6950 8625c-105-35-200-141-222-248-43-206 163-412 369-369 155 32 275 190 260 339-11 105-90 213-190 262-61 29-155 36-217 16z"/>
<path d="m8230 8625c-105-35-200-141-222-248-43-206 163-412 369-369 155 32 275 190 260 339-11 105-90 213-190 262-61 29-155 36-217 16z"/>
<path d="m9510 8625c-105-35-200-141-222-248-43-206 163-412 369-369 155 32 275 190 260 339-11 105-90 213-190 262-61 29-155 36-217 16z"/>
<path d="m10790 8625c-105-35-200-141-222-248-43-206 163-412 369-369 155 32 275 190 260 339-11 105-90 213-190 262-61 29-155 36-217 16z"/>
<path d="m12070 8625c-105-35-200-141-222-248-43-206 163-412 369-369 155 32 275 190 260 339-11 105-90 213-190 262-61 29-155 36-217 16z"/>
<path d="m550 7345c-105-35-200-141-222-248-43-206 163-412 369-369 155 32 275 190 260 339-11 105-90 213-190 262-61 29-155 36-217 16z"/>
<path d="m1830 7345c-105-35-200-141-222-248-43-206 163-412 369-369 155 32 275 190 260 339-11 105-90 213-190 262-61 29-155 36-217 16z"/>
<path d="m3110 7345c-105-35-200-141-222-248-43-206 163-412 369-369 155 32 275 190 260 339-11 105-90 213-190 262-61 29-155 36-217 16z"/>
<path d="m4390 7345c-105-35-200-141-222-248-43-206 163-412 369-369 155 32 275 190 260 339-11 105-90 213-190 262-61 29-155 36-217 16z"/>
<path d="m5670 7345c-105-35-200-141-222-248-43-206 163-412 369-369 155 32 275 190 260 339-11 105-90 213-190 262-61 29-155 36-217 16z"/>
<path d="m6950 7345c-105-35-200-141-222-248-43-206 163-412 369-369 155 32 275 190 260 339-11 105-90 213-190 262-61 29-155 36-217 16z"/>
<path d="m8230 7345c-105-35-200-141-222-248-43-206 163-412 369-369 155 32 275 190 260 339-11 105-90 213-190 262-61 29-155 36-217 16z"/>
<path d="m9510 7345c-105-35-200-141-222-248-43-206 163-412 369-369 155 32 275 190 260 339-11 105-90 213-190 262-61 29-155 36-217 16z"/>
<path d="m10790 7345c-105-35-200-141-222-248-43-206 163-412 369-369 155 32 275 190 260 339-11 105-90 213-190 262-61 29-155 36-217 16z"/>
<path d="m12070 7345c-105-35-200-141-222-248-43-206 163-412 369-369 155 32 275 190 260 339-11 105-90 213-190 262-61 29-155 36-217 16z"/>
<path d="m550 6065c-105-35-200-141-222-248-43-206 163-412 369-369 155 32 275 190 260 339-11 105-90 213-190 262-61 29-155 36-217 16z"/>
<path d="m1830 6065c-105-35-200-141-222-248-43-206 163-412 369-369 155 32 275 190 260 339-11 105-90 213-190 262-61 29-155 36-217 16z"/>
<path d="m3110 6065c-105-35-200-141-222-248-43-206 163-412 369-369 155 32 275 190 260 339-11 105-90 213-190 262-61 29-155 36-217 16z"/>
<path d="m4390 6065c-105-35-200-141-222-248-43-206 163-412 369-369 155 32 275 190 260 339-11 105-90 213-190 262-61 29-155 36-217 16z"/>
<path d="m5670 6065c-105-35-200-141-222-248-43-206 163-412 369-369 155 32 275 190 260 339-11 105-90 213-190 262-61 29-155 36-217 16z"/>
<path d="m6950 6065c-105-35-200-141-222-248-43-206 163-412 369-369 155 32 275 190 260 339-11 105-90 213-190 262-61 29-155 36-217 16z"/>
<path d="m8230 6065c-105-35-200-141-222-248-43-206 163-412 369-369 155 32 275 190 260 339-11 105-90 213-190 262-61 29-155 36-217 16z"/>
<path d="m9510 6065c-105-35-200-141-222-248-43-206 163-412 369-369 155 32 275 190 260 339-11 105-90 213-190 262-61 29-155 36-217 16z"/>
<path d="m10790 6065c-105-35-200-141-222-248-43-206 163-412 369-369 155 32 275 190 260 339-11 105-90 213-190 262-61 29-155 36-217 16z"/>
<path d="m12070 6065c-105-35-200-141-222-248-43-206 163-412 369-369 155 32 275 190 260 339-11 105-90 213-190 262-61 29-155 36-217 16z"/>
<path d="m550 4785c-105-35-200-141-222-248-43-206 163-412 369-369 155 32 275 190 260 339-11 105-90 213-190 262-61 29-155 36-217 16z"/>
<path d="m1830 4785c-105-35-200-141-222-248-43-206 163-412 369-369 155 32 275 190 260 339-11 105-90 213-190 262-61 29-155 36-217 16z"/>
<path d="m3110 4785c-105-35-200-141-222-248-25-117 32-244 142-319 107-74 229-75 337-3 177 118 201 338 53 485-85 86-207 119-310 85z"/>
<path d="m4390 4785c-105-35-200-141-222-248-25-117 32-244 142-319 107-74 229-75 337-3 177 118 201 338 53 485-85 86-207 119-310 85z"/>
<path d="m5670 4785c-151-50-253-216-222-362 25-119 136-230 255-255 193-41 394 142 374 339-11 105-90 213-190 262-61 29-155 36-217 16z"/>
<path d="m6950 4785c-151-50-253-216-222-362 25-119 136-230 255-255 193-41 394 142 374 339-11 105-90 213-190 262-61 29-155 36-217 16z"/>
<path d="m8230 4785c-151-50-253-216-222-362 25-119 136-230 255-255 193-41 394 142 374 339-11 105-90 213-190 262-61 29-155 36-217 16z"/>
<path d="m9510 4785c-151-50-253-216-222-362 25-119 136-230 255-255 193-41 394 142 374 339-11 105-90 213-190 262-61 29-155 36-217 16z"/>
<path d="m10790 4785c-105-35-200-141-222-248-43-206 163-412 369-369 155 32 275 190 260 339-11 105-90 213-190 262-61 29-155 36-217 16z"/>
<path d="m12070 4785c-105-35-200-141-222-248-43-206 163-412 369-369 155 32 275 190 260 339-11 105-90 213-190 262-61 29-155 36-217 16z"/>
<path d="m550 3505c-105-35-200-141-222-248-43-206 163-412 369-369 155 32 275 190 260 339-11 105-90 213-190 262-61 29-155 36-217 16z"/>
<path d="m1830 3505c-105-35-200-141-222-248-43-206 163-412 369-369 155 32 275 190 260 339-11 105-90 213-190 262-61 29-155 36-217 16z"/>
<path d="m3110 3505c-105-35-200-141-222-248-25-117 32-244 142-319 107-74 229-75 337-3 177 118 201 338 53 485-85 86-207 119-310 85z"/>
<path d="m4390 3505c-105-35-200-141-222-248-25-117 32-244 142-319 107-74 229-75 337-3 177 118 201 338 53 485-85 86-207 119-310 85z"/>
<path d="m5670 3505c-151-50-253-216-222-362 25-119 136-230 255-255 193-41 394 142 374 339-11 105-90 213-190 262-61 29-155 36-217 16z"/>
<path d="m6950 3505c-151-50-253-216-222-362 25-119 136-230 255-255 193-41 394 142 374 339-11 105-90 213-190 262-61 29-155 36-217 16z"/>
<path d="m8230 3505c-151-50-253-216-222-362 25-119 136-230 255-255 193-41 394 142 374 339-11 105-90 213-190 262-61 29-155 36-217 16z"/>
<path d="m9510 3505c-151-50-253-216-222-362 25-119 136-230 255-255 193-41 394 142 374 339-11 105-90 213-190 262-61 29-155 36-217 16z"/>
<path d="m10790 3505c-105-35-200-141-222-248-43-206 163-412 369-369 155 32 275 190 260 339-11 105-90 213-190 262-61 29-155 36-217 16z"/>
<path d="m12070 3505c-105-35-200-141-222-248-43-206 163-412 369-369 155 32 275 190 260 339-11 105-90 213-190 262-61 29-155 36-217 16z"/>
<path d="m550 2225c-105-35-200-141-222-248-43-206 163-412 369-369 155 32 275 190 260 339-11 105-90 213-190 262-61 29-155 36-217 16z"/>
<path d="m1830 2225c-105-35-200-141-222-248-43-206 163-412 369-369 155 32 275 190 260 339-11 105-90 213-190 262-61 29-155 36-217 16z"/>
<path d="m3110 2225c-105-35-200-141-222-248-25-117 32-244 142-319 107-74 229-75 337-3 177 118 201 338 53 485-85 86-207 119-310 85z"/>
<path d="m4390 2225c-105-35-200-141-222-248-25-117 32-244 142-319 107-74 229-75 337-3 177 118 201 338 53 485-85 86-207 119-310 85z"/>
<path d="m5670 2225c-105-35-200-141-222-248-43-206 163-412 369-369 155 32 275 190 260 339-11 105-90 213-190 262-61 29-155 36-217 16z"/>
<path d="m6950 2225c-105-35-200-141-222-248-43-206 163-412 369-369 155 32 275 190 260 339-11 105-90 213-190 262-61 29-155 36-217 16z"/>
<path d="m8230 2225c-105-35-200-141-222-248-43-206 163-412 369-369 155 32 275 190 260 339-11 105-90 213-190 262-61 29-155 36-217 16z"/>
<path d="m9510 2225c-105-35-200-141-222-248-43-206 163-412 369-369 155 32 275 190 260 339-11 105-90 213-190 262-61 29-155 36-217 16z"/>
<path d="m10790 2225c-105-35-200-141-222-248-43-206 163-412 369-369 155 32 275 190 260 339-11 105-90 213-190 262-61 29-155 36-217 16z"/>
<path d="m12070 2225c-105-35-200-141-222-248-43-206 163-412 369-369 155 32 275 190 260 339-11 105-90 213-190 262-61 29-155 36-217 16z"/>
<path d="m550 945c-105-35-200-141-222-248-43-206 163-412 369-369 155 32 275 190 260 339-11 105-90 213-190 262-61 29-155 36-217 16z"/>
<path d="m1830 945c-105-35-200-141-222-248-43-206 163-412 369-369 155 32 275 190 260 339-11 105-90 213-190 262-61 29-155 36-217 16z"/>
<path d="m3110 945c-105-35-200-141-222-248-43-206 163-412 369-369 155 32 275 190 260 339-11 105-90 213-190 262-61 29-155 36-217 16z"/>
<path d="m4390 945c-105-35-200-141-222-248-43-206 163-412 369-369 155 32 275 190 260 339-11 105-90 213-190 262-61 29-155 36-217 16z"/>
<path d="m5670 945c-105-35-200-141-222-248-43-206 163-412 369-369 155 32 275 190 260 339-11 105-90 213-190 262-61 29-155 36-217 16z"/>
<path d="m6950 945c-105-35-200-141-222-248-43-206 163-412 369-369 155 32 275 190 260 339-11 105-90 213-190 262-61 29-155 36-217 16z"/>
<path d="m8230 945c-105-35-200-141-222-248-43-206 163-412 369-369 155 32 275 190 260 339-11 105-90 213-190 262-61 29-155 36-217 16z"/>
<path d="m9510 945c-105-35-200-141-222-248-43-206 163-412 369-369 155 32 275 190 260 339-11 105-90 213-190 262-61 29-155 36-217 16z"/>
<path d="m10790 945c-105-35-200-141-222-248-43-206 163-412 369-369 155 32 275 190 260 339-11 105-90 213-190 262-61 29-155 36-217 16z"/>
<path d="m12070 945c-105-35-200-141-222-248-43-206 163-412 369-369 155 32 275 190 260 339-11 105-90 213-190 262-61 29-155 36-217 16z"/>
</g>
</svg>
